<?xml version="1.0" encoding="utf-8"?>
<!-- Generator: Adobe Illustrator 24.1.2, SVG Export Plug-In . SVG Version: 6.00 Build 0)  -->
<svg version="1.1" xmlns="http://www.w3.org/2000/svg" xmlns:xlink="http://www.w3.org/1999/xlink" x="0px" y="0px"
	 viewBox="0 0 1024 768" style="enable-background:new 0 0 1024 768;" xml:space="preserve">
<style type="text/css">
	.st0{fill:url(#SVGID_1_);}
	.st1{fill:url(#SVGID_2_);}
	.st2{fill:url(#SVGID_3_);}
	.st3{fill:url(#SVGID_4_);}
	.st4{fill:url(#SVGID_5_);}
	.st5{fill:url(#SVGID_6_);}
	.st6{fill:url(#SVGID_7_);}
	.st7{fill:url(#SVGID_8_);}
	.st8{display:none;}
	.st9{display:inline;fill:#326EC2;}
	.st10{font-family:'FuturaLT';}
	.st11{font-size:300px;}
	.st12{display:inline;}
	.st13{fill:#3FA9F5;}
	.st14{letter-spacing:22;}
	.st15{fill:url(#SVGID_9_);}
	.st16{fill:url(#SVGID_10_);}
	.st17{fill:url(#SVGID_11_);}
	.st18{fill:url(#SVGID_12_);}
	.st19{fill:url(#SVGID_13_);}
	.st20{fill:url(#SVGID_14_);}
	.st21{fill:url(#SVGID_15_);}
	.st22{fill:url(#SVGID_16_);}
	.st23{fill:url(#SVGID_17_);}
	.st24{fill:url(#SVGID_18_);}
	.st25{fill:url(#SVGID_19_);}
	.st26{fill:url(#SVGID_20_);}
</style>
<g id="LOGO_1">
	<text transform="matrix(1 0 0 1 -476.8588 435.8343)" class="st10" style="fill:#326EC2; font-size:430.0363px;">V</text>
	<g>
		<g>
			<linearGradient id="SVGID_1_" gradientUnits="userSpaceOnUse" x1="-1014.6479" y1="390.0067" x2="-459.4899" y2="390.0067">
				<stop  offset="0" style="stop-color:#77C4F3"/>
				<stop  offset="0.5" style="stop-color:#42B5F0"/>
				<stop  offset="1" style="stop-color:#449AD8"/>
			</linearGradient>
			<path class="st0" d="M-1013.95,395.54c-1.03-13.39-0.92-26.94,0.3-40.44c1.14-13.51,3.5-26.95,6.84-40.19
				c1.67-6.62,3.57-13.19,5.76-19.68c2.22-6.47,4.69-12.88,7.4-19.18c5.43-12.6,11.73-24.89,19.07-36.58
				c14.65-23.38,32.93-44.62,54.1-62.61c10.54-9.03,21.84-17.22,33.68-24.54c11.82-7.35,24.25-13.74,37.09-19.18
				c12.83-5.47,26.1-9.92,39.64-13.31c13.53-3.42,27.32-5.84,41.21-7.14c27.77-2.64,55.9-1.23,83.26,4.25
				c54.73,10.87,106.04,38.42,144.99,78.21c39.08,39.56,66.35,90.78,76.36,145.36c5.07,27.26,6.07,55.14,3.09,82.6
				c-1.49,13.72-3.99,27.33-7.49,40.66c-3.52,13.33-8.08,26.36-13.54,38.99c-10.94,25.24-25.61,48.78-43.32,69.64
				c-17.72,20.86-38.6,38.92-61.51,53.61c-22.89,14.73-48,25.83-74.07,33.02c-26.05,7.27-53.14,10.24-79.92,9.47v-1.97
				c26.62-0.77,52.95-5.59,78.01-13.83c25.06-8.29,48.73-20.32,70.21-35.31c21.48-15.02,40.6-33.22,56.76-53.63
				c16.19-20.39,29.33-43.13,38.85-67.22c4.77-12.05,8.6-24.43,11.55-37.01c2.97-12.57,5.01-25.35,6.11-38.21
				c2.19-25.7,0.62-51.73-4.68-76.86c-5.34-25.13-14.22-49.48-26.5-71.99c-12.26-22.51-27.87-43.17-46.09-61.13
				c-18.23-17.96-39.08-33.18-61.6-45.22c-22.53-12.01-46.84-20.64-71.88-25.52c-50.12-9.83-102.98-4.48-150.23,14.72
				c-47.34,19.11-89.15,52.06-119.23,94.1c-7.51,10.51-14.44,21.5-20.44,33.03c-3.01,5.76-5.81,11.63-8.39,17.62
				c-2.62,5.97-5.07,12.03-7.27,18.19c-4.4,12.32-7.88,25.01-10.62,37.92c-2.67,12.93-4.5,26.07-5.53,39.39L-1013.95,395.54z"/>
			
				<linearGradient id="SVGID_2_" gradientUnits="userSpaceOnUse" x1="3225.52" y1="1370.6716" x2="3718.2371" y2="1370.6716" gradientTransform="matrix(-1 0 0 -1 2737.6758 1753.9629)">
				<stop  offset="0" style="stop-color:#77C4F3"/>
				<stop  offset="0.5" style="stop-color:#42B5F0"/>
				<stop  offset="1" style="stop-color:#449AD8"/>
			</linearGradient>
			<path class="st1" d="M-488.46,378.38c0.91,11.88,0.82,23.91-0.27,35.89c-1.01,11.99-3.1,23.92-6.07,35.67
				c-1.48,5.87-3.16,11.71-5.11,17.47c-1.97,5.75-4.16,11.43-6.57,17.03c-4.82,11.18-10.41,22.09-16.93,32.46
				c-13,20.75-29.23,39.6-48.01,55.56c-9.36,8.02-19.38,15.29-29.89,21.79c-10.49,6.53-21.53,12.2-32.92,17.03
				c-11.39,4.85-23.16,8.8-35.18,11.81c-12,3.04-24.24,5.19-36.57,6.34c-24.65,2.34-49.61,1.09-73.89-3.77
				c-48.58-9.65-94.11-34.1-128.68-69.42c-34.69-35.11-58.88-80.56-67.76-129c-4.5-24.19-5.4-48.94-2.75-73.31
				c1.33-12.18,3.54-24.25,6.65-36.09c3.13-11.83,7.17-23.4,12.02-34.6c9.7-22.4,22.73-43.29,38.45-61.81
				c15.73-18.52,34.25-34.55,54.59-47.58c20.32-13.07,42.6-22.93,65.73-29.3c23.12-6.45,47.17-9.1,70.94-8.41v1.75
				c-23.63,0.69-47,4.96-69.23,12.27c-22.24,7.35-43.25,18.03-62.31,31.34c-19.06,13.33-36.02,29.48-50.37,47.6
				c-14.37,18.1-26.03,38.27-34.48,59.66c-4.23,10.69-7.63,21.69-10.25,32.85c-2.64,11.16-4.45,22.5-5.42,33.91
				c-1.94,22.81-0.55,45.91,4.15,68.22c4.74,22.31,12.62,43.91,23.52,63.89c10.89,19.98,24.73,38.31,40.91,54.25
				c16.18,15.94,34.69,29.45,54.67,40.13c20,10.66,41.57,18.32,63.8,22.65c44.49,8.72,91.4,3.97,133.33-13.06
				c42.01-16.96,79.12-46.2,105.82-83.51c6.67-9.33,12.82-19.08,18.13-29.31c2.68-5.11,5.16-10.33,7.45-15.64
				c2.32-5.3,4.5-10.67,6.45-16.14c3.91-10.94,7-22.2,9.43-33.66c2.36-11.47,3.99-23.14,4.9-34.96L-488.46,378.38z"/>
			
				<linearGradient id="SVGID_3_" gradientUnits="userSpaceOnUse" x1="-579.0587" y1="114.5402" x2="-182.2393" y2="114.5402" gradientTransform="matrix(1 0 0 1 -344.8164 265.9102)">
				<stop  offset="0" style="stop-color:#77C4F3"/>
				<stop  offset="0.5" style="stop-color:#42B5F0"/>
				<stop  offset="1" style="stop-color:#449AD8"/>
			</linearGradient>
			<path class="st2" d="M-923.38,384.41c-0.73-9.57-0.66-19.26,0.22-28.9c0.82-9.66,2.5-19.27,4.89-28.72
				c1.19-4.73,2.55-9.43,4.12-14.07c1.59-4.63,3.35-9.2,5.29-13.71c3.88-9.01,8.39-17.79,13.64-26.14
				c10.47-16.71,23.54-31.9,38.67-44.76c7.54-6.46,15.61-12.31,24.08-17.54c8.45-5.26,17.34-9.82,26.51-13.71
				c9.17-3.91,18.66-7.09,28.33-9.52c9.67-2.44,19.53-4.18,29.46-5.1c19.85-1.88,39.95-0.88,59.51,3.03
				c39.12,7.77,75.79,27.46,103.64,55.91c27.94,28.28,47.42,64.89,54.58,103.9c3.62,19.48,4.34,39.41,2.21,59.04
				c-1.07,9.81-2.85,19.53-5.35,29.06c-2.51,9.53-5.78,18.85-9.68,27.87c-7.81,18.04-18.3,34.87-30.96,49.78
				c-12.67,14.91-27.59,27.82-43.97,38.32c-16.37,10.52-34.31,18.46-52.94,23.6c-18.62,5.2-37.98,7.33-57.13,6.77v-1.41
				c19.03-0.55,37.85-3.99,55.76-9.88c17.91-5.93,34.83-14.52,50.18-25.24c15.35-10.73,29.02-23.74,40.57-38.33
				c11.58-14.58,20.97-30.82,27.77-48.04c3.4-8.61,6.14-17.47,8.25-26.46c2.13-8.99,3.59-18.12,4.37-27.31
				c1.56-18.37,0.44-36.97-3.35-54.94c-3.81-17.97-10.17-35.37-18.94-51.46c-8.77-16.09-19.92-30.86-32.95-43.69
				c-13.03-12.84-27.94-23.71-44.03-32.32c-16.11-8.59-33.48-14.75-51.38-18.24c-35.84-7.02-73.61-3.2-107.39,10.52
				c-33.84,13.66-63.72,37.21-85.23,67.26c-5.37,7.51-10.32,15.37-14.61,23.61c-2.15,4.11-4.15,8.32-6,12.59
				c-1.87,4.27-3.62,8.6-5.19,13c-3.14,8.81-5.64,17.88-7.6,27.1c-1.9,9.24-3.21,18.64-3.95,28.16L-923.38,384.41z"/>
			
				<linearGradient id="SVGID_4_" gradientUnits="userSpaceOnUse" x1="102.0888" y1="2850.9939" x2="634.9451" y2="2850.9939" gradientTransform="matrix(0 1 -1 0 2142.3145 -17.8683)">
				<stop  offset="0" style="stop-color:#77C4F3"/>
				<stop  offset="0.5" style="stop-color:#42B5F0"/>
				<stop  offset="1" style="stop-color:#449AD8"/>
			</linearGradient>
			<path class="st3" d="M-713.99,84.89c12.85-0.98,25.86-0.89,38.81,0.29c12.97,1.09,25.88,3.35,38.57,6.56
				c6.35,1.6,12.66,3.42,18.89,5.53c6.22,2.14,12.36,4.5,18.41,7.11c12.09,5.21,23.89,11.26,35.1,18.31
				c22.44,14.05,42.83,31.61,60.1,51.92c8.68,10.13,16.53,20.96,23.56,32.33c7.06,11.35,13.19,23.28,18.41,35.6
				c5.25,12.31,9.52,25.05,12.78,38.04c3.28,12.99,5.61,26.22,6.85,39.56c2.53,26.65,1.18,53.65-4.08,79.91
				c-10.43,52.54-36.88,101.78-75.07,139.16c-37.97,37.52-87.13,63.69-139.52,73.29c-26.16,4.86-52.93,5.83-79.28,2.97
				c-13.17-1.44-26.23-3.83-39.03-7.19c-12.8-3.38-25.32-7.76-37.43-13c-24.23-10.49-46.82-24.58-66.84-41.58
				c-20.03-17.01-37.36-37.04-51.46-59.03c-14.14-21.98-24.8-46.07-31.69-71.09c-6.98-25.01-9.84-51.01-9.09-76.72h1.89
				c0.74,25.56,5.36,50.83,13.26,74.88c7.96,24.05,19.5,46.77,33.9,67.38c14.41,20.62,31.89,38.97,51.47,54.48
				c19.57,15.55,41.4,28.16,64.52,37.29c11.57,4.57,23.46,8.25,35.53,11.09c12.07,2.85,24.34,4.81,36.67,5.86
				c24.67,2.1,49.65,0.59,73.78-4.49c24.13-5.12,47.5-13.65,69.11-25.43c21.6-11.78,41.43-26.75,58.67-44.24
				c17.24-17.5,31.84-37.52,43.4-59.13c11.53-21.63,19.81-44.96,24.5-69c9.43-48.11,4.3-98.85-14.12-144.2
				c-18.34-45.44-49.97-85.57-90.32-114.44c-10.08-7.21-20.64-13.86-31.7-19.61c-5.52-2.89-11.17-5.58-16.91-8.05
				c-5.72-2.51-11.54-4.87-17.45-6.97c-11.83-4.23-24.01-7.57-36.4-10.2c-12.4-2.56-25.02-4.32-37.8-5.31L-713.99,84.89z"/>
		</g>
	</g>
	<g>
		<text transform="matrix(1 0 0 1 -348.7807 630.5589)" class="st13 st10" style="font-size:430.0363px; letter-spacing:31;">A</text>
	</g>
	<g>
		<g>
			<linearGradient id="SVGID_5_" gradientUnits="userSpaceOnUse" x1="131.2955" y1="404.2844" x2="856.0438" y2="404.2844">
				<stop  offset="0" style="stop-color:#77C4F3"/>
				<stop  offset="0.5" style="stop-color:#42B5F0"/>
				<stop  offset="1" style="stop-color:#449AD8"/>
			</linearGradient>
			<path class="st4" d="M132.21,411.51c-1.34-17.48-1.21-35.17,0.39-52.79c1.48-17.64,4.57-35.19,8.92-52.46
				c2.19-8.64,4.66-17.23,7.52-25.69c2.9-8.45,6.13-16.81,9.67-25.04c7.09-16.45,15.32-32.5,24.9-47.75
				c19.12-30.52,42.99-58.26,70.62-81.74c13.77-11.79,28.51-22.49,43.97-32.04c15.43-9.6,31.66-17.94,48.42-25.04
				c16.75-7.14,34.07-12.95,51.75-17.38c17.66-4.46,35.66-7.63,53.8-9.31c36.25-3.44,72.97-1.61,108.69,5.54
				C632.32,61.98,699.3,97.96,750.15,149.9c51.02,51.65,86.62,118.51,99.68,189.76c6.62,35.58,7.93,71.98,4.03,107.83
				c-1.95,17.91-5.21,35.68-9.78,53.09c-4.59,17.4-10.54,34.42-17.67,50.9c-14.28,32.96-33.44,63.68-56.56,90.92
				c-23.14,27.23-50.39,50.81-80.29,69.99c-29.89,19.22-62.66,33.72-96.69,43.1c-34.01,9.49-69.37,13.37-104.34,12.36v-2.58
				c34.75-1.01,69.12-7.29,101.84-18.05c32.71-10.82,63.62-26.52,91.66-46.1c28.04-19.6,53-43.36,74.1-70.01
				c21.14-26.62,38.29-56.3,50.72-87.76c6.22-15.73,11.23-31.9,15.08-48.32c3.88-16.41,6.55-33.1,7.97-49.88
				c2.85-33.55,0.81-67.53-6.11-100.34c-6.97-32.81-18.57-64.59-34.6-93.98c-16.01-29.39-36.38-56.36-60.17-79.8
				c-23.8-23.45-51.02-43.31-80.42-59.03c-29.42-15.68-61.15-26.95-93.84-33.32c-65.44-12.83-134.44-5.84-196.12,19.21
				c-61.8,24.95-116.38,67.96-155.65,122.84c-9.81,13.72-18.85,28.07-26.68,43.12c-3.93,7.51-7.59,15.19-10.95,23
				c-3.42,7.79-6.62,15.7-9.49,23.74c-5.75,16.09-10.29,32.65-13.87,49.5c-3.48,16.88-5.87,34.04-7.22,51.42L132.21,411.51z"/>
			
				<linearGradient id="SVGID_6_" gradientUnits="userSpaceOnUse" x1="1918.6479" y1="1358.4453" x2="2561.8806" y2="1358.4453" gradientTransform="matrix(-1 0 0 -1 2737.6758 1753.9629)">
				<stop  offset="0" style="stop-color:#77C4F3"/>
				<stop  offset="0.5" style="stop-color:#42B5F0"/>
				<stop  offset="1" style="stop-color:#449AD8"/>
			</linearGradient>
			<path class="st5" d="M818.22,389.1c1.19,15.51,1.07,31.22-0.35,46.85c-1.31,15.65-4.05,31.23-7.92,46.56
				c-1.93,7.67-4.13,15.29-6.68,22.8c-2.57,7.5-5.43,14.92-8.57,22.23c-6.3,14.6-13.59,28.84-22.1,42.38
				c-16.97,27.08-38.16,51.7-62.68,72.54c-12.22,10.47-25.31,19.96-39.03,28.44c-13.7,8.52-28.1,15.93-42.97,22.23
				c-14.87,6.34-30.24,11.49-45.93,15.42c-15.67,3.96-31.65,6.78-47.75,8.27c-32.18,3.06-64.77,1.42-96.46-4.92
				c-63.42-12.59-122.86-44.52-167.99-90.63c-45.29-45.84-76.87-105.18-88.46-168.41c-5.87-31.58-7.04-63.89-3.59-95.7
				c1.73-15.9,4.63-31.66,8.68-47.11c4.08-15.44,9.36-30.55,15.69-45.17c12.67-29.25,29.67-56.52,50.2-80.69
				c20.54-24.17,44.72-45.1,71.26-62.11c26.52-17.06,55.62-29.93,85.81-38.25c30.19-8.43,61.57-11.87,92.61-10.97v2.28
				c-30.85,0.9-61.35,6.47-90.38,16.02c-29.03,9.6-56.46,23.54-81.35,40.91c-24.88,17.4-47.03,38.49-65.76,62.14
				c-18.77,23.63-33.99,49.97-45.01,77.88c-5.52,13.96-9.96,28.31-13.39,42.88c-3.45,14.57-5.81,29.38-7.08,44.27
				c-2.53,29.78-0.72,59.94,5.42,89.06c6.18,29.13,16.48,57.33,30.71,83.41c14.21,26.08,32.28,50.01,53.4,70.83
				c21.12,20.81,45.29,38.44,71.37,52.39c26.11,13.91,54.27,23.92,83.29,29.57c58.08,11.38,119.32,5.19,174.07-17.05
				c54.85-22.14,103.29-60.31,138.15-109.02c8.7-12.18,16.73-24.91,23.67-38.27c3.49-6.68,6.73-13.48,9.72-20.42
				c3.03-6.91,5.88-13.94,8.42-21.07c5.1-14.28,9.14-28.98,12.31-43.94c3.09-14.98,5.21-30.21,6.4-45.64L818.22,389.1z"/>
			
				<linearGradient id="SVGID_7_" gradientUnits="userSpaceOnUse" x1="594.6141" y1="125.8987" x2="1112.6544" y2="125.8987" gradientTransform="matrix(1 0 0 1 -344.8164 265.9102)">
				<stop  offset="0" style="stop-color:#77C4F3"/>
				<stop  offset="0.5" style="stop-color:#42B5F0"/>
				<stop  offset="1" style="stop-color:#449AD8"/>
			</linearGradient>
			<path class="st6" d="M250.45,396.97c-0.95-12.49-0.86-25.14,0.28-37.73c1.07-12.6,3.26-25.15,6.38-37.5
				c1.56-6.18,3.32-12.31,5.37-18.36c2.08-6.04,4.37-12.02,6.91-17.9c5.07-11.76,10.95-23.23,17.8-34.13
				c13.67-21.82,30.73-41.64,50.48-58.43c9.84-8.43,20.38-16.07,31.43-22.9c11.03-6.86,22.63-12.82,34.61-17.9
				c11.97-5.1,24.36-9.25,36.99-12.42c12.62-3.19,25.49-5.46,38.46-6.66c25.92-2.46,52.16-1.15,77.69,3.96
				c51.07,10.14,98.95,35.85,135.3,72.98c36.48,36.92,61.91,84.71,71.25,135.64c4.73,25.43,5.67,51.45,2.88,77.07
				c-1.39,12.8-3.72,25.5-6.98,37.94c-3.28,12.44-7.54,24.61-12.64,36.38c-10.2,23.55-23.9,45.52-40.42,64.99
				c-16.54,19.46-36.02,36.32-57.4,50.02c-21.37,13.74-44.79,24.1-69.11,30.8c-24.31,6.79-49.59,9.56-74.58,8.84v-1.84
				c24.85-0.72,49.41-5.21,72.79-12.9c23.38-7.74,45.47-18.96,65.51-32.96c20.04-14.01,37.88-31,52.96-50.05
				c15.11-19.03,27.38-40.24,36.26-62.72c4.44-11.24,8.02-22.8,10.77-34.54c2.78-11.73,4.68-23.66,5.71-35.65
				c2.04-23.98,0.57-48.27-4.37-71.72c-4.98-23.46-13.27-46.17-24.73-67.18c-11.44-21-26-40.28-43.01-57.04
				c-17.01-16.76-36.48-30.96-57.48-42.19c-21.03-11.21-43.71-19.26-67.08-23.82c-46.78-9.17-96.1-4.18-140.19,13.73
				c-44.18,17.83-83.19,48.58-111.26,87.81c-7.01,9.8-13.47,20.06-19.07,30.82c-2.81,5.37-5.42,10.86-7.83,16.44
				c-2.44,5.57-4.73,11.22-6.78,16.97c-4.11,11.5-7.36,23.34-9.92,35.38c-2.48,12.06-4.19,24.33-5.16,36.76L250.45,396.97z"/>
			
				<linearGradient id="SVGID_8_" gradientUnits="userSpaceOnUse" x1="22.9546" y1="1611.5828" x2="718.5884" y2="1611.5828" gradientTransform="matrix(0 1 -1 0 2142.3145 -17.8683)">
				<stop  offset="0" style="stop-color:#77C4F3"/>
				<stop  offset="0.5" style="stop-color:#42B5F0"/>
				<stop  offset="1" style="stop-color:#449AD8"/>
			</linearGradient>
			<path class="st7" d="M523.8,5.96c16.78-1.28,33.76-1.16,50.67,0.38c16.93,1.42,33.78,4.38,50.36,8.57
				c8.29,2.09,16.53,4.46,24.66,7.21c8.12,2.79,16.13,5.88,24.04,9.28c15.79,6.81,31.19,14.7,45.83,23.9
				c29.3,18.35,55.92,41.26,78.46,67.78c11.33,13.22,21.58,27.37,30.76,42.21c9.21,14.81,17.22,30.39,24.04,46.48
				c6.85,16.08,12.42,32.7,16.68,49.66c4.29,16.96,7.32,34.23,8.94,51.64c3.3,34.79,1.54,70.04-5.32,104.32
				c-13.62,68.59-48.15,132.87-98,181.67c-49.58,48.98-113.75,83.14-182.14,95.68c-34.16,6.35-69.09,7.61-103.49,3.87
				c-17.19-1.87-34.24-5-50.95-9.38c-16.71-4.41-33.05-10.13-48.86-16.97c-31.63-13.7-61.12-32.09-87.26-54.29
				c-26.15-22.21-48.77-48.36-67.17-77.07c-18.46-28.69-32.37-60.14-41.37-92.8c-9.12-32.65-12.84-66.59-11.87-100.15h2.47
				c0.96,33.36,7,66.35,17.32,97.75c10.39,31.4,25.46,61.06,44.25,87.97c18.82,26.92,41.63,50.87,67.19,71.12
				c25.55,20.3,54.04,36.76,84.23,48.68c15.1,5.97,30.63,10.78,46.38,14.47c15.76,3.73,31.77,6.28,47.87,7.66
				c32.2,2.74,64.82,0.77,96.31-5.86c31.51-6.69,62.01-17.82,90.22-33.2c28.2-15.37,54.08-34.92,76.59-57.76
				c22.51-22.85,41.57-48.98,56.66-77.19c15.05-28.24,25.86-58.69,31.98-90.07c12.31-62.81,5.61-129.04-18.44-188.25
				c-23.95-59.32-65.23-111.7-117.91-149.4c-13.17-9.41-26.94-18.09-41.39-25.6c-7.21-3.77-14.58-7.28-22.08-10.51
				c-7.47-3.28-15.07-6.35-22.79-9.1c-15.44-5.52-31.34-9.88-47.52-13.32c-16.19-3.34-32.67-5.64-49.35-6.93L523.8,5.96z"/>
		</g>
	</g>
</g>
<g id="Logo2" class="st8">
	<text transform="matrix(1 0 0 1 223.4407 411.5135)" class="st9 st10 st11">V</text>
	<g class="st12">
		<text transform="matrix(1 0 0 1 301.9541 548.0832)" class="st13 st10 st11 st14">A</text>
	</g>
	<g class="st12">
		<g>
			<linearGradient id="SVGID_9_" gradientUnits="userSpaceOnUse" x1="476.4786" y1="363.1294" x2="863.7654" y2="363.1294">
				<stop  offset="0" style="stop-color:#77C4F3"/>
				<stop  offset="0.5" style="stop-color:#42B5F0"/>
				<stop  offset="1" style="stop-color:#449AD8"/>
			</linearGradient>
			<path class="st15" d="M476.97,366.99c-0.72-9.34-0.64-18.8,0.21-28.21c0.79-9.42,2.44-18.8,4.77-28.04
				c1.17-4.62,2.49-9.2,4.02-13.73c1.55-4.52,3.27-8.98,5.17-13.38c3.79-8.79,8.18-17.37,13.31-25.52
				c10.22-16.31,22.97-31.13,37.74-43.68c7.36-6.3,15.23-12.02,23.5-17.12c8.25-5.13,16.92-9.59,25.88-13.38
				c8.95-3.81,18.21-6.92,27.65-9.29c9.44-2.39,19.06-4.08,28.75-4.98c19.37-1.84,38.99-0.86,58.08,2.96
				c38.18,7.58,73.97,26.8,101.15,54.56c27.27,27.6,46.29,63.33,53.27,101.4c3.54,19.01,4.24,38.47,2.16,57.62
				c-1.04,9.57-2.78,19.06-5.22,28.37c-2.45,9.3-5.63,18.39-9.45,27.2c-7.63,17.61-17.87,34.03-30.22,48.58
				c-12.36,14.55-26.93,27.15-42.91,37.4c-15.97,10.27-33.49,18.02-51.67,23.03c-18.17,5.07-37.07,7.15-55.75,6.61v-1.38
				c18.57-0.54,36.94-3.9,54.42-9.64c17.48-5.78,34-14.17,48.98-24.63c14.98-10.48,28.32-23.17,39.6-37.41
				c11.3-14.23,20.46-30.09,27.1-46.9c3.32-8.4,6-17.04,8.06-25.82c2.08-8.77,3.5-17.69,4.26-26.66
				c1.52-17.93,0.43-36.09-3.26-53.62c-3.72-17.53-9.92-34.52-18.49-50.22c-8.55-15.7-19.44-30.12-32.16-42.64
				c-12.72-12.53-27.27-23.14-42.97-31.54c-15.72-8.38-32.68-14.4-50.15-17.8c-34.97-6.86-71.84-3.12-104.8,10.27
				c-33.02,13.33-62.19,36.32-83.18,65.64c-5.24,7.33-10.07,15-14.26,23.04c-2.1,4.02-4.05,8.12-5.85,12.29
				c-1.83,4.16-3.54,8.39-5.07,12.69c-3.07,8.6-5.5,17.45-7.41,26.45c-1.86,9.02-3.14,18.19-3.86,27.48L476.97,366.99z"/>
			
				<linearGradient id="SVGID_10_" gradientUnits="userSpaceOnUse" x1="1893.6908" y1="1395.5182" x2="2237.4177" y2="1395.5182" gradientTransform="matrix(-1 0 0 -1 2737.6758 1753.9629)">
				<stop  offset="0" style="stop-color:#77C4F3"/>
				<stop  offset="0.5" style="stop-color:#42B5F0"/>
				<stop  offset="1" style="stop-color:#449AD8"/>
			</linearGradient>
			<path class="st16" d="M843.55,355.02c0.63,8.29,0.57,16.68-0.19,25.04c-0.7,8.37-2.16,16.69-4.23,24.88
				c-1.03,4.1-2.21,8.17-3.57,12.18c-1.37,4.01-2.9,7.97-4.58,11.88c-3.37,7.8-7.26,15.41-11.81,22.65
				c-9.07,14.47-20.39,27.63-33.49,38.76c-6.53,5.6-13.52,10.67-20.85,15.2c-7.32,4.56-15.02,8.51-22.96,11.88
				c-7.94,3.39-16.16,6.14-24.54,8.24c-8.37,2.12-16.91,3.62-25.51,4.42c-17.2,1.63-34.61,0.76-51.55-2.63
				c-33.89-6.73-65.65-23.79-89.77-48.43c-24.2-24.49-41.08-56.2-47.27-90c-3.14-16.88-3.76-34.14-1.92-51.14
				c0.93-8.49,2.47-16.92,4.64-25.18c2.18-8.25,5-16.32,8.38-24.14c6.77-15.63,15.85-30.2,26.82-43.12
				c10.98-12.92,23.9-24.1,38.08-33.19c14.17-9.12,29.72-15.99,45.85-20.44c16.13-4.5,32.9-6.35,49.49-5.86v1.22
				c-16.48,0.48-32.78,3.46-48.3,8.56c-15.51,5.13-30.17,12.58-43.47,21.86c-13.3,9.3-25.13,20.57-35.14,33.2
				c-10.03,12.63-18.16,26.7-24.05,41.62c-2.95,7.46-5.32,15.13-7.15,22.92c-1.84,7.79-3.1,15.7-3.78,23.66
				c-1.35,15.91-0.38,32.03,2.9,47.59c3.3,15.56,8.81,30.64,16.41,44.57c7.59,13.94,17.25,26.73,28.54,37.85
				c11.29,11.12,24.2,20.54,38.14,27.99c13.95,7.43,29,12.78,44.51,15.8c31.04,6.08,63.76,2.77,93.02-9.11
				c29.31-11.83,55.19-32.23,73.82-58.26c4.65-6.51,8.94-13.31,12.65-20.45c1.87-3.57,3.6-7.21,5.19-10.91
				c1.62-3.69,3.14-7.45,4.5-11.26c2.73-7.63,4.88-15.49,6.58-23.48c1.65-8,2.78-16.14,3.42-24.39L843.55,355.02z"/>
			
				<linearGradient id="SVGID_11_" gradientUnits="userSpaceOnUse" x1="884.6195" y1="90.5526" x2="1161.4468" y2="90.5526" gradientTransform="matrix(1 0 0 1 -344.8164 265.9102)">
				<stop  offset="0" style="stop-color:#77C4F3"/>
				<stop  offset="0.5" style="stop-color:#42B5F0"/>
				<stop  offset="1" style="stop-color:#449AD8"/>
			</linearGradient>
			<path class="st17" d="M540.15,359.22c-0.51-6.68-0.46-13.43,0.15-20.16c0.57-6.74,1.74-13.44,3.41-20.04
				c0.83-3.3,1.78-6.58,2.87-9.81c1.11-3.23,2.34-6.42,3.69-9.57c2.71-6.28,5.85-12.41,9.51-18.24
				c7.3-11.66,16.42-22.25,26.97-31.22c5.26-4.51,10.89-8.59,16.8-12.24c5.89-3.67,12.1-6.85,18.5-9.57
				c6.4-2.73,13.01-4.94,19.76-6.64c6.75-1.71,13.62-2.92,20.55-3.56c13.85-1.31,27.87-0.61,41.51,2.12
				c27.29,5.42,52.88,19.16,72.3,39c19.49,19.73,33.08,45.27,38.07,72.48c2.53,13.59,3.03,27.5,1.54,41.19
				c-0.74,6.84-1.99,13.63-3.73,20.28c-1.75,6.65-4.03,13.15-6.75,19.44c-5.45,12.58-12.77,24.32-21.6,34.73
				c-8.84,10.4-19.25,19.41-30.67,26.73c-11.42,7.34-23.94,12.88-36.93,16.46c-12.99,3.63-26.5,5.11-39.85,4.72v-0.98
				c13.28-0.38,26.41-2.78,38.9-6.89c12.49-4.13,24.3-10.13,35.01-17.61c10.71-7.49,20.24-16.56,28.3-26.74
				c8.08-10.17,14.63-21.5,19.38-33.52c2.37-6.01,4.29-12.19,5.76-18.46c1.48-6.27,2.5-12.64,3.05-19.05
				c1.09-12.82,0.3-25.79-2.33-38.33c-2.66-12.54-7.09-24.67-13.22-35.9c-6.11-11.22-13.89-21.53-22.98-30.48
				c-9.09-8.96-19.49-16.54-30.71-22.55c-11.24-5.99-23.36-10.29-35.84-12.73c-25-4.9-51.35-2.23-74.91,7.34
				c-23.61,9.53-44.45,25.96-59.45,46.92c-3.75,5.24-7.2,10.72-10.19,16.47c-1.5,2.87-2.9,5.8-4.18,8.78
				c-1.31,2.98-2.53,6-3.62,9.07c-2.19,6.14-3.93,12.47-5.3,18.91c-1.33,6.45-2.24,13-2.76,19.64L540.15,359.22z"/>
			
				<linearGradient id="SVGID_12_" gradientUnits="userSpaceOnUse" x1="167.6766" y1="1452.3875" x2="539.4053" y2="1452.3875" gradientTransform="matrix(0 1 -1 0 2142.3145 -17.8683)">
				<stop  offset="0" style="stop-color:#77C4F3"/>
				<stop  offset="0.5" style="stop-color:#42B5F0"/>
				<stop  offset="1" style="stop-color:#449AD8"/>
			</linearGradient>
			<path class="st18" d="M686.22,150.28c8.96-0.68,18.04-0.62,27.07,0.21c9.05,0.76,18.05,2.34,26.91,4.58
				c4.43,1.12,8.84,2.39,13.18,3.85c4.34,1.49,8.62,3.14,12.85,4.96c8.44,3.64,16.67,7.86,24.49,12.77
				c15.66,9.8,29.88,22.05,41.92,36.22c6.05,7.07,11.53,14.62,16.44,22.55c4.92,7.91,9.2,16.24,12.85,24.84
				c3.66,8.59,6.64,17.48,8.91,26.54c2.29,9.06,3.91,18.29,4.78,27.6c1.76,18.59,0.82,37.43-2.84,55.75
				c-7.28,36.65-25.73,71-52.37,97.08c-26.49,26.18-60.78,44.43-97.33,51.13c-18.25,3.39-36.92,4.07-55.3,2.07
				c-9.19-1-18.3-2.67-27.23-5.01c-8.93-2.36-17.66-5.41-26.11-9.07c-16.9-7.32-32.66-17.15-46.63-29.01
				c-13.97-11.87-26.06-25.84-35.9-41.18c-9.86-15.33-17.3-32.14-22.11-49.59c-4.87-17.45-6.86-35.58-6.34-53.52h1.32
				c0.52,17.83,3.74,35.46,9.25,52.24c5.55,16.78,13.61,32.63,23.65,47.01c10.05,14.38,22.24,27.19,35.91,38.01
				c13.65,10.85,28.88,19.65,45.01,26.01c8.07,3.19,16.37,5.76,24.79,7.73c8.42,1.99,16.98,3.36,25.58,4.09
				c17.21,1.46,34.64,0.41,51.47-3.13c16.84-3.57,33.14-9.52,48.21-17.74c15.07-8.21,28.9-18.66,40.93-30.86
				c12.03-12.21,22.21-26.17,30.28-41.25c8.04-15.09,13.82-31.36,17.09-48.13c6.58-33.56,3-68.96-9.85-100.59
				c-12.8-31.7-34.86-59.69-63.01-79.84c-7.04-5.03-14.4-9.67-22.12-13.68c-3.85-2.02-7.79-3.89-11.8-5.62
				c-3.99-1.75-8.05-3.39-12.18-4.86c-8.25-2.95-16.75-5.28-25.39-7.12c-8.65-1.79-17.46-3.01-26.37-3.7L686.22,150.28z"/>
		</g>
	</g>
</g>
<g id="Logo_3" class="st8">
	<text transform="matrix(1 0 0 1 1400.2686 442.7303)" class="st9 st10 st11">V</text>
	<g class="st12">
		<text transform="matrix(1 0 0 1 1518.7156 452.4846)" class="st13 st10 st11 st14">A</text>
	</g>
</g>
<g id="Logo_4" class="st8">
	<text transform="matrix(1 0 0 1 2716.1028 512.9584)" class="st9 st10" style="font-size:351px;">V</text>
	<g class="st12">
		<text transform="matrix(1 0 0 1 2705.0737 512.9584)" class="st13 st10" style="font-size:351px; letter-spacing:25;">A</text>
	</g>
	<g class="st12">
		<g>
			<linearGradient id="SVGID_13_" gradientUnits="userSpaceOnUse" x1="2273.6145" y1="411.9288" x2="2660.9011" y2="411.9288">
				<stop  offset="0" style="stop-color:#77C4F3"/>
				<stop  offset="0.5" style="stop-color:#42B5F0"/>
				<stop  offset="1" style="stop-color:#449AD8"/>
			</linearGradient>
			<path class="st19" d="M2274.1,415.79c-0.72-9.34-0.65-18.8,0.21-28.21c0.79-9.42,2.44-18.8,4.77-28.04
				c1.17-4.62,2.49-9.2,4.02-13.73c1.55-4.52,3.27-8.98,5.17-13.38c3.79-8.79,8.18-17.37,13.31-25.52
				c10.22-16.31,22.97-31.13,37.74-43.68c7.36-6.3,15.23-12.02,23.5-17.12c8.25-5.13,16.92-9.59,25.88-13.38
				c8.95-3.81,18.21-6.92,27.65-9.29c9.44-2.39,19.06-4.08,28.75-4.98c19.37-1.84,38.99-0.86,58.08,2.96
				c38.18,7.58,73.97,26.8,101.15,54.56c27.27,27.6,46.29,63.33,53.27,101.4c3.54,19.01,4.24,38.47,2.16,57.62
				c-1.04,9.57-2.78,19.06-5.22,28.37c-2.45,9.3-5.63,18.39-9.45,27.2c-7.63,17.61-17.87,34.03-30.22,48.58
				c-12.36,14.55-26.93,27.15-42.91,37.4c-15.97,10.27-33.49,18.02-51.67,23.03c-18.17,5.07-37.07,7.15-55.75,6.61v-1.38
				c18.57-0.54,36.94-3.9,54.42-9.64c17.48-5.78,34-14.17,48.98-24.63c14.98-10.48,28.32-23.17,39.6-37.41
				c11.3-14.23,20.46-30.09,27.1-46.9c3.32-8.4,6-17.04,8.06-25.82c2.08-8.77,3.5-17.69,4.26-26.66
				c1.52-17.93,0.43-36.09-3.26-53.62c-3.72-17.53-9.92-34.52-18.49-50.22c-8.55-15.7-19.44-30.12-32.16-42.64
				c-12.72-12.53-27.27-23.14-42.97-31.54c-15.72-8.38-32.68-14.4-50.15-17.8c-34.97-6.86-71.84-3.12-104.8,10.27
				c-33.02,13.33-62.19,36.32-83.18,65.64c-5.24,7.33-10.07,15-14.26,23.04c-2.1,4.02-4.05,8.12-5.85,12.29
				c-1.83,4.16-3.54,8.39-5.07,12.69c-3.07,8.6-5.5,17.45-7.41,26.45c-1.86,9.02-3.14,18.19-3.86,27.48L2274.1,415.79z"/>
			
				<linearGradient id="SVGID_14_" gradientUnits="userSpaceOnUse" x1="96.555" y1="1346.7189" x2="440.282" y2="1346.7189" gradientTransform="matrix(-1 0 0 -1 2737.6758 1753.9629)">
				<stop  offset="0" style="stop-color:#77C4F3"/>
				<stop  offset="0.5" style="stop-color:#42B5F0"/>
				<stop  offset="1" style="stop-color:#449AD8"/>
			</linearGradient>
			<path class="st20" d="M2640.69,403.82c0.63,8.29,0.57,16.68-0.19,25.04c-0.7,8.37-2.16,16.69-4.23,24.88
				c-1.03,4.1-2.21,8.17-3.57,12.18c-1.37,4.01-2.9,7.97-4.58,11.88c-3.37,7.8-7.26,15.41-11.81,22.65
				c-9.07,14.47-20.39,27.63-33.49,38.76c-6.53,5.6-13.52,10.67-20.85,15.2c-7.32,4.56-15.02,8.51-22.96,11.88
				c-7.94,3.39-16.16,6.14-24.54,8.24c-8.37,2.12-16.91,3.62-25.51,4.42c-17.2,1.63-34.61,0.76-51.55-2.63
				c-33.89-6.73-65.65-23.79-89.77-48.43c-24.2-24.49-41.08-56.2-47.27-90c-3.14-16.88-3.76-34.14-1.92-51.14
				c0.93-8.49,2.47-16.92,4.64-25.18c2.18-8.25,5-16.32,8.38-24.14c6.77-15.63,15.85-30.2,26.82-43.12
				c10.98-12.92,23.9-24.1,38.08-33.19c14.17-9.12,29.72-15.99,45.85-20.44c16.13-4.5,32.9-6.35,49.49-5.86v1.22
				c-16.48,0.48-32.78,3.46-48.3,8.56c-15.51,5.13-30.17,12.58-43.47,21.86c-13.3,9.3-25.13,20.57-35.14,33.2
				c-10.03,12.63-18.16,26.7-24.05,41.62c-2.95,7.46-5.32,15.13-7.15,22.92c-1.84,7.79-3.1,15.7-3.78,23.66
				c-1.35,15.91-0.38,32.03,2.9,47.59c3.3,15.56,8.81,30.64,16.41,44.57c7.59,13.94,17.25,26.73,28.54,37.85
				c11.29,11.12,24.2,20.54,38.14,27.99c13.95,7.43,29,12.78,44.51,15.8c31.04,6.08,63.76,2.77,93.02-9.11
				c29.31-11.83,55.19-32.23,73.82-58.26c4.65-6.51,8.94-13.31,12.65-20.45c1.87-3.57,3.6-7.21,5.19-10.91
				c1.62-3.69,3.14-7.45,4.5-11.26c2.73-7.63,4.88-15.49,6.58-23.48c1.65-8,2.78-16.14,3.42-24.39L2640.69,403.82z"/>
			
				<linearGradient id="SVGID_15_" gradientUnits="userSpaceOnUse" x1="2681.7554" y1="139.3521" x2="2958.5825" y2="139.3521" gradientTransform="matrix(1 0 0 1 -344.8164 265.9102)">
				<stop  offset="0" style="stop-color:#77C4F3"/>
				<stop  offset="0.5" style="stop-color:#42B5F0"/>
				<stop  offset="1" style="stop-color:#449AD8"/>
			</linearGradient>
			<path class="st21" d="M2337.29,408.02c-0.51-6.68-0.46-13.43,0.15-20.16c0.57-6.74,1.74-13.44,3.41-20.04
				c0.83-3.3,1.78-6.58,2.87-9.81c1.11-3.23,2.34-6.42,3.69-9.57c2.71-6.28,5.85-12.41,9.51-18.24
				c7.3-11.66,16.42-22.25,26.97-31.22c5.26-4.51,10.89-8.59,16.8-12.24c5.89-3.67,12.09-6.85,18.5-9.57
				c6.4-2.73,13.01-4.94,19.76-6.64c6.75-1.71,13.62-2.92,20.55-3.56c13.85-1.31,27.87-0.61,41.51,2.12
				c27.29,5.42,52.88,19.16,72.3,39c19.49,19.73,33.08,45.27,38.07,72.48c2.53,13.59,3.03,27.5,1.54,41.19
				c-0.74,6.84-1.99,13.63-3.73,20.28c-1.75,6.65-4.03,13.15-6.75,19.44c-5.45,12.58-12.77,24.32-21.6,34.73
				c-8.84,10.4-19.25,19.41-30.67,26.73c-11.42,7.34-23.94,12.88-36.93,16.46c-12.99,3.63-26.5,5.11-39.85,4.72v-0.98
				c13.28-0.38,26.41-2.78,38.9-6.89c12.49-4.13,24.3-10.13,35.01-17.61c10.71-7.49,20.24-16.56,28.3-26.74
				c8.08-10.17,14.63-21.5,19.38-33.52c2.37-6.01,4.29-12.19,5.76-18.46c1.48-6.27,2.5-12.64,3.05-19.05
				c1.09-12.82,0.3-25.79-2.33-38.33c-2.66-12.54-7.09-24.67-13.22-35.9c-6.11-11.22-13.89-21.53-22.98-30.48
				c-9.09-8.96-19.49-16.54-30.71-22.55c-11.24-5.99-23.36-10.29-35.84-12.73c-25-4.9-51.35-2.23-74.91,7.34
				c-23.61,9.53-44.45,25.96-59.45,46.92c-3.75,5.24-7.2,10.72-10.19,16.47c-1.5,2.87-2.9,5.8-4.18,8.78
				c-1.31,2.98-2.53,6-3.62,9.07c-2.19,6.14-3.93,12.47-5.3,18.91c-1.33,6.45-2.24,13-2.76,19.64L2337.29,408.02z"/>
			
				<linearGradient id="SVGID_16_" gradientUnits="userSpaceOnUse" x1="216.476" y1="-344.7483" x2="588.2047" y2="-344.7483" gradientTransform="matrix(0 1 -1 0 2142.3145 -17.8683)">
				<stop  offset="0" style="stop-color:#77C4F3"/>
				<stop  offset="0.5" style="stop-color:#42B5F0"/>
				<stop  offset="1" style="stop-color:#449AD8"/>
			</linearGradient>
			<path class="st22" d="M2483.36,199.08c8.96-0.68,18.04-0.62,27.07,0.21c9.05,0.76,18.05,2.34,26.91,4.58
				c4.43,1.12,8.84,2.39,13.18,3.85c4.34,1.49,8.62,3.14,12.84,4.96c8.44,3.64,16.67,7.86,24.49,12.77
				c15.66,9.8,29.88,22.05,41.92,36.22c6.05,7.07,11.53,14.62,16.44,22.55c4.92,7.91,9.2,16.24,12.85,24.84
				c3.66,8.59,6.64,17.48,8.91,26.54c2.29,9.06,3.91,18.29,4.78,27.6c1.76,18.59,0.82,37.43-2.84,55.75
				c-7.28,36.65-25.73,71-52.37,97.08c-26.49,26.18-60.78,44.43-97.33,51.13c-18.25,3.39-36.92,4.07-55.3,2.07
				c-9.19-1-18.3-2.67-27.23-5.01c-8.93-2.36-17.66-5.41-26.11-9.07c-16.9-7.32-32.66-17.15-46.63-29.01
				c-13.97-11.87-26.06-25.84-35.9-41.18c-9.86-15.33-17.3-32.14-22.11-49.59c-4.87-17.45-6.86-35.58-6.34-53.52h1.32
				c0.52,17.83,3.74,35.46,9.25,52.24c5.55,16.78,13.61,32.63,23.65,47.01c10.05,14.38,22.24,27.19,35.91,38.01
				c13.65,10.85,28.88,19.65,45.01,26.01c8.07,3.19,16.37,5.76,24.79,7.73c8.42,1.99,16.98,3.36,25.58,4.09
				c17.21,1.46,34.64,0.41,51.47-3.13c16.84-3.57,33.14-9.52,48.21-17.74c15.07-8.21,28.9-18.66,40.93-30.86
				c12.03-12.21,22.21-26.17,30.28-41.25c8.04-15.09,13.82-31.36,17.09-48.13c6.58-33.56,3-68.96-9.85-100.59
				c-12.8-31.7-34.86-59.69-63.01-79.84c-7.04-5.03-14.4-9.67-22.12-13.68c-3.85-2.02-7.79-3.89-11.8-5.62
				c-3.99-1.75-8.05-3.39-12.18-4.86c-8.25-2.95-16.75-5.28-25.39-7.12c-8.65-1.79-17.46-3.01-26.37-3.7L2483.36,199.08z"/>
		</g>
	</g>
</g>
<g id="Logo_5" class="st8">
	<text transform="matrix(1 0 0 1 -681.7144 2114.3721)" class="st9 st10" style="font-size:351px;">V</text>
	<g class="st12">
		<text transform="matrix(1 0 0 1 -692.7435 2085.793)" class="st13 st10" style="font-size:351px; letter-spacing:25;">A</text>
	</g>
</g>
<g id="logo_6" class="st8">
	<text transform="matrix(1 0 0 1 506.2358 1240.8868)" class="st9 st10" style="font-size:277px;">V</text>
	<g class="st12">
		<g>
			<linearGradient id="SVGID_17_" gradientUnits="userSpaceOnUse" x1="223.4407" y1="1153.3472" x2="465.4949" y2="1153.3472">
				<stop  offset="0" style="stop-color:#77C4F3"/>
				<stop  offset="0.5" style="stop-color:#42B5F0"/>
				<stop  offset="1" style="stop-color:#449AD8"/>
			</linearGradient>
			<path class="st23" d="M223.75,1155.76c-0.45-5.84-0.4-11.75,0.13-17.63c0.5-5.89,1.52-11.75,2.98-17.52
				c0.73-2.89,1.56-5.75,2.51-8.58c0.97-2.82,2.05-5.61,3.23-8.36c2.37-5.49,5.12-10.85,8.32-15.95
				c6.39-10.19,14.36-19.46,23.59-27.3c4.6-3.94,9.52-7.51,14.69-10.7c5.15-3.21,10.57-5.99,16.17-8.36
				c5.59-2.38,11.38-4.32,17.28-5.81c5.9-1.49,11.91-2.55,17.97-3.11c12.11-1.15,24.37-0.54,36.3,1.85
				c23.86,4.74,46.23,16.75,63.22,34.1c17.04,17.25,28.93,39.58,33.29,63.38c2.21,11.88,2.65,24.04,1.35,36.01
				c-0.65,5.98-1.74,11.91-3.27,17.73c-1.53,5.81-3.52,11.5-5.9,17c-4.77,11.01-11.17,21.27-18.89,30.37
				c-7.73,9.1-16.83,16.97-26.82,23.37c-9.98,6.42-20.93,11.26-32.29,14.4c-11.36,3.17-23.17,4.47-34.85,4.13v-0.86
				c11.61-0.34,23.09-2.44,34.01-6.03c10.93-3.61,21.25-8.86,30.61-15.4c9.36-6.55,17.7-14.48,24.75-23.38
				c7.06-8.89,12.79-18.8,16.94-29.31c2.08-5.25,3.75-10.65,5.04-16.14c1.3-5.48,2.19-11.05,2.66-16.66
				c0.95-11.2,0.27-22.55-2.04-33.51c-2.33-10.96-6.2-21.57-11.55-31.39c-5.35-9.81-12.15-18.82-20.1-26.65
				c-7.95-7.83-17.04-14.47-26.86-19.71c-9.82-5.24-20.42-9-31.34-11.13c-21.85-4.28-44.9-1.95-65.5,6.42
				c-20.64,8.33-38.87,22.7-51.99,41.03c-3.28,4.58-6.29,9.37-8.91,14.4c-1.31,2.51-2.53,5.07-3.66,7.68
				c-1.14,2.6-2.21,5.24-3.17,7.93c-1.92,5.37-3.44,10.91-4.63,16.53c-1.16,5.64-1.96,11.37-2.41,17.17L223.75,1155.76z"/>
			
				<linearGradient id="SVGID_18_" gradientUnits="userSpaceOnUse" x1="2284.5437" y1="603.5437" x2="2499.373" y2="603.5437" gradientTransform="matrix(-1 0 0 -1 2737.6758 1753.9629)">
				<stop  offset="0" style="stop-color:#77C4F3"/>
				<stop  offset="0.5" style="stop-color:#42B5F0"/>
				<stop  offset="1" style="stop-color:#449AD8"/>
			</linearGradient>
			<path class="st24" d="M452.86,1148.28c0.4,5.18,0.36,10.43-0.12,15.65c-0.44,5.23-1.35,10.43-2.65,15.55
				c-0.65,2.56-1.38,5.11-2.23,7.61c-0.86,2.51-1.81,4.98-2.86,7.42c-2.1,4.88-4.54,9.63-7.38,14.15
				c-5.67,9.05-12.75,17.27-20.93,24.23c-4.08,3.5-8.45,6.67-13.03,9.5c-4.58,2.85-9.39,5.32-14.35,7.42
				c-4.97,2.12-10.1,3.84-15.34,5.15c-5.23,1.32-10.57,2.26-15.95,2.76c-10.75,1.02-21.63,0.48-32.22-1.64
				c-21.18-4.21-41.03-14.87-56.11-30.27c-15.13-15.31-25.67-35.13-29.55-56.25c-1.96-10.55-2.35-21.34-1.2-31.96
				c0.58-5.31,1.55-10.57,2.9-15.74c1.36-5.16,3.13-10.2,5.24-15.09c4.23-9.77,9.91-18.88,16.76-26.95
				c6.86-8.07,14.93-15.06,23.8-20.75c8.86-5.7,18.57-10,28.66-12.78c10.08-2.81,20.56-3.97,30.93-3.67v0.76
				c-10.3,0.3-20.49,2.16-30.19,5.35c-9.7,3.21-18.86,7.86-27.17,13.66c-8.31,5.81-15.71,12.85-21.96,20.75
				c-6.27,7.89-11.35,16.69-15.03,26.01c-1.84,4.66-3.33,9.46-4.47,14.32c-1.15,4.87-1.94,9.81-2.36,14.79
				c-0.85,9.94-0.24,20.02,1.81,29.74c2.06,9.73,5.5,19.15,10.26,27.86c4.75,8.71,10.78,16.7,17.84,23.65
				c7.05,6.95,15.13,12.84,23.84,17.5c8.72,4.65,18.13,7.99,27.82,9.88c19.4,3.8,39.85,1.73,58.14-5.7
				c18.32-7.39,34.5-20.14,46.14-36.41c2.91-4.07,5.59-8.32,7.91-12.78c1.17-2.23,2.25-4.5,3.25-6.82c1.01-2.31,1.96-4.65,2.81-7.04
				c1.7-4.77,3.05-9.68,4.11-14.67c1.03-5,1.74-10.09,2.14-15.24L452.86,1148.28z"/>
			
				<linearGradient id="SVGID_19_" gradientUnits="userSpaceOnUse" x1="607.8349" y1="883.2703" x2="780.852" y2="883.2703" gradientTransform="matrix(1 0 0 1 -344.8164 265.9102)">
				<stop  offset="0" style="stop-color:#77C4F3"/>
				<stop  offset="0.5" style="stop-color:#42B5F0"/>
				<stop  offset="1" style="stop-color:#449AD8"/>
			</linearGradient>
			<path class="st25" d="M263.24,1150.9c-0.32-4.17-0.29-8.4,0.09-12.6c0.36-4.21,1.09-8.4,2.13-12.52
				c0.52-2.06,1.11-4.11,1.79-6.13c0.69-2.02,1.46-4.01,2.31-5.98c1.69-3.93,3.66-7.76,5.95-11.4c4.56-7.29,10.26-13.91,16.86-19.51
				c3.29-2.82,6.81-5.37,10.5-7.65c3.68-2.29,7.56-4.28,11.56-5.98c4-1.7,8.13-3.09,12.35-4.15c4.22-1.07,8.51-1.82,12.84-2.22
				c8.66-0.82,17.42-0.38,25.95,1.32c17.06,3.39,33.05,11.97,45.19,24.38c12.18,12.33,20.68,28.29,23.8,45.3
				c1.58,8.49,1.89,17.18,0.96,25.74c-0.47,4.28-1.24,8.52-2.33,12.67c-1.1,4.15-2.52,8.22-4.22,12.15
				c-3.41,7.87-7.98,15.2-13.5,21.71c-5.53,6.5-12.03,12.13-19.17,16.71c-7.14,4.59-14.96,8.05-23.08,10.29
				c-8.12,2.27-16.56,3.19-24.91,2.95v-0.61c8.3-0.24,16.5-1.74,24.31-4.31c7.81-2.58,15.19-6.33,21.88-11.01
				c6.69-4.68,12.65-10.35,17.69-16.71c5.05-6.36,9.14-13.44,12.11-20.95c1.48-3.75,2.68-7.62,3.6-11.54
				c0.93-3.92,1.56-7.9,1.91-11.91c0.68-8.01,0.19-16.12-1.46-23.95c-1.66-7.84-4.43-15.42-8.26-22.44
				c-3.82-7.01-8.68-13.45-14.36-19.05c-5.68-5.6-12.18-10.34-19.2-14.09c-7.02-3.74-14.6-6.43-22.4-7.95
				c-15.62-3.06-32.1-1.4-46.82,4.59c-14.75,5.96-27.78,16.22-37.16,29.33c-2.34,3.27-4.5,6.7-6.37,10.29
				c-0.94,1.79-1.81,3.63-2.61,5.49c-0.82,1.86-1.58,3.75-2.26,5.67c-1.37,3.84-2.46,7.79-3.31,11.82
				c-0.83,4.03-1.4,8.13-1.72,12.28L263.24,1150.9z"/>
			
				<linearGradient id="SVGID_20_" gradientUnits="userSpaceOnUse" x1="1037.8898" y1="1785.4686" x2="1270.2202" y2="1785.4686" gradientTransform="matrix(0 1 -1 0 2142.3145 -17.8683)">
				<stop  offset="0" style="stop-color:#77C4F3"/>
				<stop  offset="0.5" style="stop-color:#42B5F0"/>
				<stop  offset="1" style="stop-color:#449AD8"/>
			</linearGradient>
			<path class="st26" d="M354.53,1020.31c5.6-0.43,11.27-0.39,16.92,0.13c5.66,0.47,11.28,1.46,16.82,2.86
				c2.77,0.7,5.52,1.49,8.24,2.41c2.71,0.93,5.39,1.96,8.03,3.1c5.27,2.27,10.42,4.91,15.31,7.98c9.79,6.13,18.68,13.78,26.2,22.64
				c3.78,4.42,7.21,9.14,10.27,14.1c3.08,4.95,5.75,10.15,8.03,15.52c2.29,5.37,4.15,10.92,5.57,16.59
				c1.43,5.66,2.45,11.43,2.99,17.25c1.1,11.62,0.51,23.39-1.78,34.84c-4.55,22.91-16.08,44.38-32.73,60.68
				c-16.56,16.36-37.99,27.77-60.83,31.96c-11.41,2.12-23.08,2.54-34.57,1.29c-5.74-0.63-11.44-1.67-17.02-3.13
				c-5.58-1.47-11.04-3.38-16.32-5.67c-10.56-4.57-20.41-10.72-29.14-18.13c-8.73-7.42-16.29-16.15-22.44-25.74
				c-6.16-9.58-10.81-20.09-13.82-30.99c-3.04-10.9-4.29-22.24-3.96-33.45h0.82c0.32,11.14,2.34,22.16,5.78,32.65
				c3.47,10.49,8.5,20.39,14.78,29.38c6.28,8.99,13.9,16.99,22.44,23.75c8.53,6.78,18.05,12.28,28.13,16.26
				c5.04,1.99,10.23,3.6,15.49,4.83c5.26,1.24,10.61,2.1,15.99,2.56c10.76,0.91,21.65,0.26,32.17-1.96
				c10.52-2.23,20.71-5.95,30.13-11.09c9.42-5.13,18.06-11.66,25.58-19.29c7.52-7.63,13.88-16.36,18.92-25.78
				c5.03-9.43,8.64-19.6,10.68-30.08c4.11-20.98,1.87-43.1-6.16-62.87c-8-19.81-21.79-37.31-39.38-49.9c-4.4-3.14-9-6.04-13.82-8.55
				c-2.41-1.26-4.87-2.43-7.37-3.51c-2.5-1.09-5.03-2.12-7.61-3.04c-5.16-1.84-10.47-3.3-15.87-4.45
				c-5.41-1.12-10.91-1.88-16.48-2.31L354.53,1020.31z"/>
		</g>
	</g>
	<g class="st12">
		<text transform="matrix(1 0 0 1 642.3016 1252.4255)" class="st13 st10" style="font-size:277px; letter-spacing:20;">A</text>
	</g>
</g>
<g id="Calque_7" class="st8">
	
		<text transform="matrix(1 0 0 1 1064.2744 134.6228)" class="st12" style="font-family:'DIN-Regular'; font-size:150px; letter-spacing:-2;">3</text>
	
		<text transform="matrix(1 0 0 1 2125.7451 134.6225)" class="st12" style="font-family:'DIN-Regular'; font-size:150px; letter-spacing:-2;">4</text>
	
		<text transform="matrix(1 0 0 1 -1007.806 924.2042)" class="st12" style="font-family:'DIN-Regular'; font-size:150px; letter-spacing:-2;">5</text>
	
		<text transform="matrix(1 0 0 1 24.0862 924.2038)" class="st12" style="font-family:'DIN-Regular'; font-size:150px; letter-spacing:-2;">6</text>
</g>
</svg>
